<svg xmlns="http://www.w3.org/2000/svg" viewBox="0 0 316.94 426.14"><defs><style>.cls-1{fill:#fff;}</style></defs><g id="Layer_2" data-name="Layer 2"><g id="Layer_1-2" data-name="Layer 1"><path class="cls-1" d="M306,16.39H11.65V14.13H306ZM67.3,268.53c-2,1.45-4.08,2.87-6.25,4.19a92.34,92.34,0,0,0,9.26-1.21A25,25,0,0,1,67.3,268.53Zm56.87-56.27c-.87-1.31-5.67-2.31-8.28-1.72a5.83,5.83,0,0,0-1.54.94c-2.18,1.83-3,2.63-3.67,7-.42,2.71,1.72,2.18,1.72,2.18.73-.35.38-4.09,1-5.55a11.37,11.37,0,0,1,2-1.75c5.53-1.91,5.74,3,8,2.45C123.34,215.8,124.92,213.36,124.17,212.26Zm24.21,153s-2,.3-1.25,5.57c0,0,.74,4.81,3.83,4.72,0,0,1.59-1.3.54-6.47C151.5,369.08,150.56,364.58,148.38,365.26ZM274.7,24H275l18.36,45h-8.62s-6.08-15.9-6.31-16.52h-16.2c-.23.63-6.19,16.52-6.19,16.52h-6.95l18.36-45Zm-4.44,7.76c-.78,2-5.39,13.62-5.83,14.78H276C275.52,45.43,271,33.77,270.26,31.8Zm-40.51-1.72h.49v-6H204.09v.49l0,44.53H233l0-6.33-21.11,0V47.59h14.43V41.71H211.92V30.09C215.07,30,229.57,30.08,229.75,30.08ZM102.41,271.14l1.4-.38c2.42-.63,3.58-.63,5.55-1.6.48-.22,1.56-.81,2-.92.63-.2,1.36-.41,2-.65s2.21-1.48,3.16-1.59c1.93-.2,3,.56,5.13.4,1.15-.09,3.3-.87,4.78-.79,0,0,2.36.75,2.36.79,2,.24,3.32-.34,5.24-.11,1.12.15,2.83,1.9,5,.3.24-.15,1.29-1,1.18-.79.82-2.05-2.29-3.12-5.47-3.89-4.7-1.12-11.84,2-11.36-1.08.21-1.58-.58-1.31-.58-1.42-.54-.06-.53-.33-1.59-.13-1.83.34-4.5,3.4-5.93,4.35-.58.42-1.47.36-2,.8a24.36,24.36,0,0,1-1.85,1.82c-2.58,1.44-4.07-.06-6.88.94-.71.25-3.35,1.5-4,1.76h0l-.12.06C99.68,269.58,99.48,271.53,102.41,271.14Zm29.32,43.35c-.78.07-6.85-4.16-9.57-6.17-1.37,4.78,7.77,12.48,9.21,12.48C133.19,320.26,132.54,315,131.73,314.49Zm-17.12-37.67c-.6-.71-1.73-2.22-4.47-.92-1.49.73-2.17,2.48-1.36,3.38,3.3,6.68,12.13,9.38,14.5,9.15C120.71,286.31,117.28,281,114.61,276.82Zm19.54,29.26c-2.21,4.33,6.65,13.69,7.85,14.75,4.35,1.19,4.45-3.7,3.77-5.48C143.36,314.74,136.58,308.52,134.15,306.08Zm31.62,58.2s-2.2.54-1.91,6c0,0,.31,5.69,3.09,4.67,0,0,2.7-1,1.69-7.2C168.64,367.72,168,363.72,165.77,364.28Zm-33-88.51c-1.9-.73-2.49.07-3.12.93-2,3.4,4,5.78,5.49,10.89.48,3.54-1,4.49,1.62,6.43,2.63,2.33,8.84,4.07,9.3,9.16,1.07,8.64,1.07,10,2.94,11.16,2.29,1.62,6.29-1.13,6.36-3.25a27.55,27.55,0,0,0-2.4-14.24c-1.18-3.72.44-7-1.94-7.37-2.8-.36-2.3,5.4-3.22,5.67-1,.09-1.43-.15-1.28-1.38.12-5-2-6.36-3.57-8.69C138.9,280.25,132.86,278.29,132.76,275.77Zm-29.23,15.09a70.16,70.16,0,0,1-4.47-6.43c-1.55-3.68-2.51-4.52-5.74-3.75-.55.29-2.15,1.37-1.1,2.74C93.88,286.2,99.8,291.29,103.53,290.86ZM65.25,266l-.44-.66a11.38,11.38,0,0,1-1.35-3.41l-1.7.06c-1.56.91-5.33,2.14-9.58,3.33C57.49,265.68,62.67,266,65.25,266ZM158.43,45.21l-.84.12,15.76,20.2c1.88,2.35,4.61,3.53,8.15,3.53h6.44l-1.34-.91A45.19,45.19,0,0,1,177,58.89l-9.36-11.68A17.13,17.13,0,0,0,174,43.27a11.35,11.35,0,0,0,3.39-8,10,10,0,0,0-3.72-8.06c-2.58-2.12-6.14-3.19-10.61-3.19H148.08v45h8v-.7a83.69,83.69,0,0,1-.22-9.17V29.65c7.34-.06,10.26.86,11.4,1.67a5.46,5.46,0,0,1,2.27,4.82C169.54,41.12,165.89,44.08,158.43,45.21ZM117.35,87.16h-4.22l8,21.5h3.37l8.29-21.49h-3.26L123.39,104C123,102.84,117.35,87.16,117.35,87.16ZM157.22,90h.22V87.14H145v.24l0,21.22h13.74l0-3-10.07,0V98.36h6.89v-2.8h-6.89V90C150.22,90,157.13,90,157.22,90Zm53.57,15.48a5.43,5.43,0,0,1-2.84.8,13,13,0,0,1-6.45-1.73l-.42-.26.55,3.76.14,0a16.49,16.49,0,0,0,5.8,1,10.23,10.23,0,0,0,6.49-2,5.94,5.94,0,0,0,2.3-4.87c0-1.74-1-3.25-3-4.5l-2.89-1.42-2.46-1.21c-1.82-1-2.73-2-2.73-3.07a2.23,2.23,0,0,1,1.27-2,5.1,5.1,0,0,1,2.73-.52,9.07,9.07,0,0,1,4.79,1.38l.38.31V87.35l-.16,0a16.28,16.28,0,0,0-4.84-.71,11,11,0,0,0-5.57,1.3,4.89,4.89,0,0,0-2.68,4.48,5.72,5.72,0,0,0,3,4.91l1.06.53,4.28,2.1c1.81,1,2.72,2.06,2.72,3.3A2.58,2.58,0,0,1,210.79,105.5Zm-109.88,3.14V87.16h-3.7v21.48Zm76.85-11.41-.39,0,7.5,9.62a4.69,4.69,0,0,0,3.86,1.69h3.09l-.64-.45a21.14,21.14,0,0,1-4.57-4.4l-4.46-5.57a7.84,7.84,0,0,0,3-1.86,5.47,5.47,0,0,0,1.61-3.8A4.74,4.74,0,0,0,185,88.66a7.72,7.72,0,0,0-5-1.52h-7.12v21.45h3.82v-.34a39.72,39.72,0,0,1-.1-4.36V89.81c3.47,0,4.87.41,5.42.79a2.6,2.6,0,0,1,1.08,2.3C183.05,95.27,181.32,96.69,177.76,97.23ZM103.32,22.84a23.11,23.11,0,0,1,17,7.06A22.23,22.23,0,0,1,126.91,46a23.07,23.07,0,0,1-7.12,17.21,23.86,23.86,0,0,1-17.11,6.87,23.58,23.58,0,0,1-16.92-6.64,22.67,22.67,0,0,1-7.12-17.1,22.39,22.39,0,0,1,7.18-16.69A24.19,24.19,0,0,1,103.32,22.84Zm-.46,5.86A15,15,0,0,0,91.3,33.47a17.69,17.69,0,0,0-4.36,12.3,19.62,19.62,0,0,0,4.35,12.65A14.42,14.42,0,0,0,103,64.26a14.78,14.78,0,0,0,11.4-4.79,17.49,17.49,0,0,0,4.22-12.1,20.5,20.5,0,0,0-4.15-12.91A14.18,14.18,0,0,0,102.86,28.7ZM78.53,102.91c-.8-1-12.42-15.75-12.42-15.75H62.88v21.48h2.81s0-14.8,0-16.06c.79,1,12.6,16,12.6,16h3.09V87.16H78.56v.24S78.53,101.66,78.53,102.91Zm226.82,11.87H11V117H305.35Zm-73.78-6.14h3.7V87.16h-3.72v16.77ZM28.77,87.16v13.23a20,20,0,0,0,.19,3.37,6.19,6.19,0,0,0,1.5,3.09,7.79,7.79,0,0,0,6,2.3h2.4a7.76,7.76,0,0,0,6-2.3,6.18,6.18,0,0,0,1.49-3.09,18.72,18.72,0,0,0,.2-3.37V87.16H43.65l0,13.22c0,4-.91,6.09-5.76,6.09h-.57c-3.23,0-4.86-2.06-4.86-6.09l0-13.22Zm231.5,276.1c-.48.39-47.57,38.42-99.22,62.37l-1.1.51h-2.88L156,425.7C103.2,403,60.53,365.9,57.48,363.22-.23,315.15,0,234.09,0,230.72V0H316.93V230.6C317,234,318.08,315.14,260.27,363.26Zm-122.22,14a37.48,37.48,0,0,1-.47-14.69s.16-.49-.42-.49h-4c-.54,0-.34.42-.34.42a44.17,44.17,0,0,1,.48,14.72s-.25.55.35.55h4C138.26,377.78,138.05,377.27,138.05,377.27ZM156.16,371c.2-10.1-7.5-9.37-7.5-9.37-6.45.63-6.06,8.17-6.06,8.17.41,6.85,7.48,8.13,7.48,8.13a11.87,11.87,0,0,1-7.11,6.82c-1.21.47-.31.81-.31.81a6.86,6.86,0,0,0,3.79-.38C155.91,380.94,156.16,371,156.16,371Zm16.38-3.25s-.85-6.27-6.73-6.21c0,0-5.82-.14-6.09,7.92,0,0-.22,8.51,7.13,8.13C166.85,377.6,174.06,377.15,172.54,367.76Zm15-6.4c-2.11,1-9.93.66-9.93.66l-1.25,8.05s7.79.29,5.81,6.54c0,0-1.64,4.39-7.86,3.18a.73.73,0,0,0-.78.4c-.29.42.24.68.24.68a12.11,12.11,0,0,0,6.56.76c6.49-1.37,6.75-6.92,6.75-6.92.12-7.19-6.54-7-6.54-7l.36-2.27,3.85-.32a3.45,3.45,0,0,0,3-2.86C188,361,187.5,361.36,187.5,361.36Zm86.32-178.11c-.38-2-5.82-1.86-8-4.54-.82-1.06-.22-1.65,0-2.45.61-2.34,5.61-1,6.76-3,.47-.88.63-3.46.33-3.81-3.12-3.83-9.71-2-14.36-3.86-2.25-.92-5-2.79-7.4-3.67-3-1.14-5.24-1.3-8.21-2.48-.68-.28-2-1.26-2.69-1.54-3.3-1.32-5.91-1.59-9.19-3-.38-.14-1.38-.71-1.82-.89-1.32-.56-1.72-.64-3.12-1.16a46.71,46.71,0,0,0-18.9-3c-3.22.17-6.93-.42-11.9,1-1.73.44-4.12,1.93-5.73,2.44a28.32,28.32,0,0,0-3.15,1,27.13,27.13,0,0,1-4.66,1.88c-5.63,1.26-13.17-.12-18.88.84-5,.79-7.84,3.91-11.91,5.33-1.25.4-1.76.28-3,.72a29.64,29.64,0,0,0-3,1c-1.71.87-2.82,1.13-4.74,1.95-.95.42-2.09,1.31-3,1.74a12.62,12.62,0,0,0-2.59,1.7l-.92.68s-2,1.74-2.27,2.06c-.8.84-1.55,2-2.24,2.86a52,52,0,0,1-7.83,7.37c-.94.67-1.6.53-2.43,1.25-1,.75-1.85,1.55-2.78,2.26a60.15,60.15,0,0,1-6.68,3.86l-1.52,1c-2,1.32-1.92,1.84-4,3.16-1.37.93-2,2.33-3.2,3.39-.83.64-1.78,2.65-2.33,3.5-2.58,3.78-3.54,9.34-5.39,14-.54,1.33-5,7.79-6.14,8.21l-.82.78c-.64.54-.64.7-1.22,1.26-1.33,1.19-2.67,1.85-3.69,3.3-.83,1.12-1.32,2.43-2.08,3.67C77.93,234,76,236.14,75,238.24a22.22,22.22,0,0,0-1,2.31c-.11.1-.18.24-.22.24a19.77,19.77,0,0,0-1.36,3.29c-.91,2.11-3.08,3.29-5.94,7.37-3.35.26-14.9-2.67-22.76-6.4,1.77,2,10.58,7.88,20.89,9-.68,1-.73,2-2,2.36-4.14,1-11.31-1.25-20.95-4.6.56,1.34,9,6.32,21.59,7.07-1.85,2.19-19.09,1.65-32.55-2-.53,1.42,16.83,5.27,26.36,5.15-1.63.83-5.92,1.8-8.67,2.8-4.35-.49-10.4-1.24-11.58-1.69.28.87,4.57,2.05,8.12,2.87-3.41,1.22-8.49,1.93-10.46,2.35,1.45.36,6.94-.52,12.72-1.91,5.06,1,12.8,2,17.06,1.79-1.06.53-5.08,3.11-8.24,5-8.1.76-16.91,1.44-18.79,1.67,1.06.16,8.16.27,15.72.09-4.62,2.71-9.53,5.52-11.92,6.6a80.29,80.29,0,0,0,16.19-6.73c6.35-.23,12.31-.74,14.78-1.63-.84,1.84-6,10.71-10.76,12.76,2.07-.34,8.69-2.21,12.71-12.26A14.25,14.25,0,0,0,79,274.8c1.05,1.59,3.55,5.68,8.3,5.91,1,2.76,9.74,17.1,22.11,11.5-3.58-1.93-5.73-3.95-7.49-9.66,5.48-.35,20,7.61,24.35,24.8-3.43-1.15-7.72-3.14-8.18-4.86-1,4-1.56,9.11,7.23,18,.17,1.89.15,4.17.55,6.31a51.2,51.2,0,0,0,4.68,4c.11,2.5-.24,5.93,6.32,7.85,2.23,1.84,9.38,3.81,10.43,5a23.28,23.28,0,0,0,7.62.69s3.1-.52,3.94-1.72c1.54-.08,3.66-.13,13.16-10.25,2-2.4,0-15.5.49-18.68.93-2.3,1.33-4.44,2.61-7.28a8.88,8.88,0,0,1,3.72-3.93,1.83,1.83,0,0,1,.5-.14c5.48-1.23,12.62,3.89,16,5.32,1.23.51,1.87.24,2.87.84.47.25,1.15,1.37,1.66,1.65,1.2.68,2.36.49,3.71,1.21,2,1.09,5.94,6.86,9.42,6.19,1.08-.26,1.94-2.72,2.86-3.32,1.62-1,3.89-.9,5.34-2,1.65-1.31,1-2.76,1.23-4.54,0-.07.77-.9.84-1.25a18.73,18.73,0,0,0,3.71-.37,6.14,6.14,0,0,0,.81-.81c.7-.73.19-1.52,0-2.11s-1.93-1.45-2.46-2c-1.23-1.23-3.34-3-4.13-4.51-.38-.75.1-.91-.42-1.69s-2-1.75-2.41-2.84c-1.6-3.52-1-11.37-1.66-12.48s-1.45-.91-2.1-1.89c-1.36-2.18.33-9.14.44-11.91.12-2.22-2.05-.83-2.05-.83-1.8,4.42-1.6,6.39-2,12.74-.08.55-.83,3.93-.83,4.53,0,2.21,1.27,6,.39,8.62a5,5,0,0,1-4.51,2.47,38.43,38.43,0,0,1-6.56-1.65c-.2-.1-1.17-1.22-1.24-1.25-2.29-1.81-2.77-.11-2.87.79s.3,1.13.5,1.66,1,2.5.91,2.66-.83,2.36-5.1-.16c-3.21-1.95-6.4-7.32-6.56-8.23a6.24,6.24,0,0,1,.58-4.32c1.61-1.45,3.51.56,5.12,1.42a10.35,10.35,0,0,0,1.89,1,10.55,10.55,0,0,0,2.66-.17c6.24-.36,12.69,1.9,13.79-2.29.69-2.63-1.89-4-2.34-5.13-.59-1.33-.28-1.41-.62-2.88-.06-.11-.49-1.07-.59-1.19-.64-1.1-.17-2.05-.81-3.27s-2.5-2.15-3.27-3.3c-1-1.51-1-3.41-2.49-4.53-2.09-1.71-10.51-4.23-11.5-6.18-1.59-3.1.39-8.8-.39-12.7a8.26,8.26,0,0,0-2.56-4.93,2.26,2.26,0,0,1-.59-2.12c.36-1.36,1.08-1,1.49-4.05.27-1.67-.14-3.57,0-5.32,0-.29.81-3,.86-3.29A36.1,36.1,0,0,0,185,211.18c-.48-1.62-2-3-2.47-4.54-.44-1.29.08-2-.44-3.31s-1.84-1.92-2.42-2.84c-1.11-1.63-.78-4.41-2.48-5.35-1.25-.69-1.7.27-1.63,0a7.52,7.52,0,0,0,.41,4.91c.31.85,1.83,2.06,2.08,2.89.32,1.51-.25,3.35,0,4.93l.79,1.65c.63,4.13-1.61,9.6-3.28,11.88-1.17,1.54-4.7,3.48-4.91,5.76-.18,1.42.4,1.46.77,2.05.52.76,2.22,1.75,2.48,2.46.19.54.4.43.61,1l.21,1.11c.28,2.88-3.46,3.52-1.64,7,.52,1,2.28,1,3.26,1.63,1.87,1.17,5.41,4.51,5.75,7.35.16,1.26,0,7.88-.38,8.65-.85,1.84-5.47,2.55-4.94,6.17.58,4,11,2.83,13.93,4.92,1.4,1,1.68,3.08,2.1,5,.24,1-.79,1.36-1.24,1.59-1.1.63-1.9.14-3.29.45-3.39.68-8.8,2.2-10.22,4.92-1.77,3.14.32,7.45-.42,11.05-.76,3.27-3.22,7.24-5,9.89-1.08,1.6-2.47,3.19-3,5.45-1.21,4.84-.36,10.57-.71,16.25l-.07.05a7.43,7.43,0,0,1-1.78,5.09c-2.26,2.47-10.06,9.79-15.61,9.79-2.05-.07-2.89-.75-5.14-2.37a11.47,11.47,0,0,1-6.54-2.86c-.59-1-6.72-7.27-2.87-9,3.63-1.67,9.48,2,12.19,3.72,1.11,0,9,.39,17.44-10.65-.41-5.76-.87-13.15-1.51-14.5-.86-2.83-5.65-7.84-6.67-10.83-.63-2.43-1.77-7.2-1-10.51-.31-3.67-2.64-4.5-3.61-7.47a6.22,6.22,0,0,0-.76-1.58,9.14,9.14,0,0,0-1.14-3c-1.47-2.23-2.89-2.71-4.22-4.89s-1.15-5.09-3.29-6.58c-1.2-.77-2.78-.86-4.11-1.63-.95-.57-2.17-2-3.28-2.46l-3-1.33c-.64-.3-1.8-.83-2.37-1.13s-1.16,0-1.64-.43c-1.58-1.34-.44-2.56-1.23-4.9-.07-.28-.69-.29-.84-.82-.66-.18-1.8-1.23-2.7-.6-1.22.91-1.56.64-2.32,2.52-.45,1.24-1.29,4.88-2.12,5.77a15.81,15.81,0,0,1-2.83,2.93,4.27,4.27,0,0,1-2,.49l-3.07.45-1.53,2.36s-1.68-.23-2.55-.23a20.33,20.33,0,0,1-2.92,2.68c-2.6,1.52-4.19.44-4.37-.11s-1-1.53.8-2.57c6-1.69,13.41-9.74,14-11.48-.77,1.16-13.22,8-15.52,9,2.47-5.87,17.74-14.47,18.66-15.49-3.91.59-16.91,8.45-19.18,11.94s-4.69,2.51-7.09,2.41-2.13,2.43-2.24,4-1.19,4.55-.21,5.09c1.6,1.37,5.8-4.19,7.13-1.2.72,3.34-7.9,3.19-7.84,5.9-.4,1.41,8,1.9,9.52,3.42-2.69,2-9.28,2.6-11.25,2.7a13.53,13.53,0,0,1-3-.06c-1.09-.18-2.52-1.18-3.78-3.23-2.39-4.34,1.65-7.32,1.72-8.43s-.46-.55-.53-2.38,2-2.12,2.5-2.5-.15-.91,0-2.68c1.06-4,7.57-8.59,5.91-9.88-1.51-.81-4.67,2.68-5.89,4.27-4.49,5.78-9.71,4-11.48,4-3.94.22-3.25-4.1-.49-3.79,3.18-.66,2.94-5.06,5.21-4.62.73,3.21-2.84,3.66-1.17,4.38,2.27.9,2.49-2.08,3.21-3.32s3.89-4,3.53-4.71c-.94-.31-3.3,1.36-4.36,2.2-2.6-6.5,3.94-11.43,4.28-13.35,2.14-3.39,14.15-7.74,14.37-12.88l.33-.3s.22-.14.58.47h0c.08.31.15.65.23,1a4.45,4.45,0,0,1,0,.79l.06-.49c.1.8,0,1.5.1,1.32v.78c.11.46.71.7.81.76a2.88,2.88,0,0,0,1.52-1c.11-.1.82-.77.82-.93a6.7,6.7,0,0,0,2.16-2.11c2.07-3-1.91-7.4-.8-11.46a21,21,0,0,1,3.27-5.88c.68-1.54-.4-1.53-.4-1.53a2.63,2.63,0,0,0-2.46,1.19,18.57,18.57,0,0,0-4.11,5.4s-1.24,1.11-1.6-.42c-.72-2.56,2.17-7.55,3.07-8.19a28.06,28.06,0,0,1,5.52-2.52c1.06-.44,2.65-2.15,3.71-2.44a2.05,2.05,0,0,1,1.63,0s.79.59.42,2.44c0,0-.81,2.23-.53,3,.18.56.11,1.09,1.35,1.09,2.95.05,9.55-.64,11.48-1.67.42-.18.86-.83,1.25-1.2.61-.62.46-1.53,0-1.63l-1.25-.42c1-.14-5.57-.19-4.51-.38-1.16.19,1.53-3,1.23-4.58-.14-.72-1.42-1-1.65-1.6-.13-.37-.82-.91,0-1.24l.94-.41a7.15,7.15,0,0,1,1.1-.82c2.07-.95,5.78-.48,7.4,0a6,6,0,0,1,3.72,3.29,8.21,8.21,0,0,0,.8,2.08c1.25,1.68,4.86,2.3,7,.28a9.47,9.47,0,0,0,1.27-1.91c2.09-4.85-1-8.14-5-9.48-1.58-.56-4.16-.72-6.15-1.24-1.4-.39-.56-1.57-.16-1.92l.6-.53c.78-1.16,3.23-2.19,4.11-2.46,2.18-.83,4.31-1.64,7.39-.39.46.16,1.66,1.1,2,1.2,2.33.58,3.21.75,5.37-.37.87-.43.74-.54.81-.8.77-2.2-.75-3.67-.71-3.43-.45-3,8,.69,9.3-1.17,1.24-1.69.44-4.91,2.08-6.15.17-.09,1.14-.79,1.23-.8a7.14,7.14,0,0,1,4.2.8l1.33.64c2.66,1.11,5,1.7,6.4,3.87.9,1.44.75,3.5,1.63,5,.37.62,1.25,1,1.7,1.64a5.79,5.79,0,0,0,1.59,1,7.52,7.52,0,0,0,2,1c.73.28,1.77,1.38,2.47,1.66,2.5,1,5.51.88,8.21.82,1.61-.07,2.56.87,4.09.41.79-.26.56-1.64.06-2.24-1-1.24-1.72-.94-3.34-1.86-.63-.4-1.43-1.66-2.06-2-1.87-1.23-4.59-1.4-5.73-3.3a4.24,4.24,0,0,1-.4-1.2l-.46-.88c-2.26-4.59-3-7.33-.8-8.2,1.36-.51,4.32-.21,5.78-.82.32-.17,1-1.09,1.21-1.22,3.26-1.55,9.38-3.36,12.74-1.64,1,.47,0,3.08.38,4.09a3.36,3.36,0,0,0,1.82,1.46c7.06,1.9,14.09,1.59,19.27,4,3.09,1.46,5.44,3.74,8.23,6.14,2.38,2.12-.45,4.52,2,5.24-1.69.22-3.11.4-3.39-.46a6.23,6.23,0,0,0-.83-1.21c-1.84-1.76-4-4.47-6.55-5.33-1.32-.49-1.91-.08-3.31-.44l-1.65-.56c-1.78-.49-1.92-.32-3.66-.69-.77-.16-2.53-1.1-3.3-1.19-3.49-.51-5.46.89-8.64,0-1.47-.42-3.35-2.76-4.55-3.39a22,22,0,0,0-4.49-1.65,1.75,1.75,0,0,0-1.5.06c-.91.54-.62,1.35-.14,2,.27.35.5,1,.82,1.18,1.16.83,3.48.83,4.1,2.05,1.82,3.57-.83,4.82-1.23,5.9-.18.65-.69,1.15,0,2a5.62,5.62,0,0,0,1.67,1.21c1.67.71,3,.44,4.53,1.25,1.11.58,2.26,2.58,3.69,2.88,3.29.72,4.07-1.72,5.74-2.08,2.38-.53,3.84.72,6.57,0,.91-.24,1.41-1.32,2-1.61a4.61,4.61,0,0,1,4.12-.44s1.06.5-.42,1.25c-.86.46-1.57.46-2.45.91a4.44,4.44,0,0,0-1.23,1.28,6,6,0,0,0-.45,1.49,2.24,2.24,0,0,0,.84.85c2.86,1,5.78-.87,8.22-1.24,1.84-.29,6.91,0,8.38,1.11,0,0,1.36.28.48,2.74-.56,1.48-2.89,2.57-3.77,3.82-.52.7-1.09,2.05-1.62,2.75-.87,1.12-1,1.08-1.9,2.12l-.6.87c-.35,1-4.54,4.6-5.32,5.79-.47.71-.7,1.45-1.19,2.2-.75,1.08-1.3,1.25-1.69,1.9-1.19,1.75-3.55,5.26-5.5,6.15-.87.36-2.09,0-3.31-.29-.82-.22-1.72-1.73-2.43-2.06-2.88-1.32-6.07-1-8.6-2.46-1.27-.77-2.43-3-3.33-4.11-.6-.77-1.14-2.14-2-2.49-1.48-.51-5,0-5.74,1.24-1.36,2.57,2.18,9.21,2.47,11.93.22,2.32-.85,3.37,0,5.31.4,1,1.94,1.25,2.45,2.05,2.23,3.52.28,8.46.82,13.14.2,1.46,1.07,3.27.8,5.36-.34,3.28-4.56,6.1-2.85,11.07.07.22.86.79.92.86a3.77,3.77,0,0,0,2.37,0c1.37-.49,2.7-3.22,4.13-4.1a1.53,1.53,0,0,1,.86-.4c.16-.29.55-.31.77-.42.6-.45.85-.46,1.21-1.23.58-1.34.38-2.64.82-4.54.43-1.57,1.88-4.36,2.06-6.17.51-5-3.13-14.85-.52-16.48,1-.61,2-1.79,3.72-2.06.76-.18,3.23.58,4.3.55,0,0,0,0,0,0-1.33,3.14,3.6,11.35,3.21,15.88-1,11-8.16,17.14-14.4,23-.71.7-.09,1.5.43,2.05,1.23,1.17,4.24.66,5.78.41,2.25-.46,3.26-1.48,4.92-2,.61-.24,1.36.14,2,0,1.69-.46,3.15-2.76,4.1-4.16,0,0,2-2.15,2.44.7l0,.17c0,2.66-.47,5.59,0,8.18.49,3.09,6.11,12.34,9,12.76,6.84,1-.16-7.6-.44-8.22a28.47,28.47,0,0,1-2-10.66c0-1.26,1.08-3.8,1.22-5,.08-.58-.23-1.94,0-2.42.54-1.1,4.17-1.45,4.95-2.89.2-.42-.1-1.17,0-1.63a8.85,8.85,0,0,1,1.66-3.67c.48-.62,1.18-1,2,0,.7.79.89,2.62,2.06,3.95l1,1.11c1.22.77,3.18-.27,2.66-.15,1.27-.35,1.12-1.63,1.66-2.08a7.4,7.4,0,0,1,.8-.4c3-3-3.63-5.81-3.7-8.63-.06-3.16.71-6.79-.39-10.26-.26-.87-1.88-2.1-2.06-2.87-.44-2,.59-4.07.82-5.33.46-2.62-.44-6.65.43-7.82.48-.63,1.27-1.09,2.85-.82,1,.19,1.75,1.89,2.47,2.47a12.9,12.9,0,0,0,10.28,2.85c.55,0,1-.85,1.11-1.09a3,3,0,0,0-.29-2.58c-1.62-2.18-7.88-3.83-8.22-4.91-.24-.8-1.22-1.87-.14-2.41-.59.33,3.85-.13,5.47-.47,2.09-.47,2.23-2.54,3.69-3.27,2-1.08,5-.14,6.19-2.06.67-1.22.14-3,.79-4.12.82-1.46,3.26-1.75,4.51-2.9C274.08,184.92,273.91,183.66,273.82,183.25ZM204.39,191c-.93.5-1.5,2.6-.93,4.76.65,2.51,6.59,6.88,11,6.17a24.59,24.59,0,0,0,5.23-2.32c.57-.48.95-1.87,1.4-2.42,1.33-1.63,3-2.42,4.72-3.7a13.07,13.07,0,0,1,1.44-1.54l.72-.67c1.69-3.07.06-4.51-3.55-4.08-1.87.22-3.66,1.84-5.23,2.35-2.58.89-4.7.71-8.06.95C209.76,190.59,205.86,190.21,204.39,191Zm1.37-5.26a7.27,7.27,0,0,0,3.9.42c1.28-.33,3.7-1.43,4.9-1.65.74-.17,1.77.2,2.48,0,2-.6,5.68-4.51,1.28-4.92-1.61-.16-6.37,1.64-7.85,2.06a14.34,14.34,0,0,0-3.64,1.27c-.33.19-2,1.58-1.83,1.34C205,184.21,203.87,185.15,205.76,185.69Zm-39.33,60.5c.21-2,1.57-5.26,1.13-7.77-.06-.49-1.26-2.81-1.4-3.2-1.14-2.39-2.35-4.51-2.65-7.26-.51-4.65,1.91-6.67,2.89-9.29.69-1.89.4-7.74,0-10.29a66.26,66.26,0,0,0-3.4-7.94,2,2,0,0,0-2.4-.54,3.7,3.7,0,0,0-.69.79,8.55,8.55,0,0,0-.66,1.58c-.32,1.53-1.27,3.43-1.89,5.74-.31,1.2-1.48,2.71-1.78,3.61-1.3,3.69-.66,9.35.29,12.33.76,2.52,4.12,5.84,4.12,8.4.08,3.6-4.92,6.41-4.16,11.75.2,1.46,1.82,2.82,2.26,4.2,1.87,6-1.8,13.16.39,19.33,0,0,0,0,0,0v0c.08.12.68.9,2.47.51.35,0,.43-.55,1.28-.74l.56-.56c.45-.37.91-.53,1.15-1l.91-.77a7.6,7.6,0,0,0,2.16-4.4C167.84,255.82,165.82,251.23,166.43,246.19Zm-15.9-9.14c-.25,1.62-1,5.08,0,6.53.23.38.46,1.38,1.15,1.32a2.4,2.4,0,0,0,1.73-1.32,17.17,17.17,0,0,0,1.62-11.1c-.08-.3-1.06-1.29-1.22-1.63-.28-.51-.29-1.48-.8-1.64s-1.16-.59-1.65,0c0,0-1.14.88-1.14.88C149.17,231.61,150.81,235,150.53,237.05Zm-5.74-29.18c.45-1.53,2.84-1.36,3.71-2.47,1.15-1.53.52-3.64,1.21-5.76.07-.26.66-1.53.78-1.75a27.11,27.11,0,0,1,.47-2.75c-.35-1.67-1.39-1-1.52-1-2.24,1.27-7.11,3.19-8.13,5.36a25.37,25.37,0,0,0-1.05,3.49c0,.15-.66.39-.85.81a25.82,25.82,0,0,0-6.55.39c-1.61.47-3.94,2.18-5.73,2.5-3.65.62-6.45-1-9.85-.42-1.54.26-2.51,1.84-3.76,2.47a7.34,7.34,0,0,0-2.34,1.28l-.76.87a11.74,11.74,0,0,1-.72,1.55,8.12,8.12,0,0,0-1.23,3.46A23.15,23.15,0,0,1,107,221c-.3.56-1.84,1.83-2.07,2.34-.11.35-.45.7,0,1.23-.53-.58-.42.56,2.53.72,3.26.07,10.34-2.1,10.34-2.1l3.4-1.83a41.56,41.56,0,0,0,3.87-3.2c2.48-3.07,9.11-14.26,14.26-11.33l.92.66c1.23,2.06-.31,8-1.23,9.32l-1.17,1.39c-.93.3-1.57,2.68-1.7,3.79a15.26,15.26,0,0,0,.42,4.36,12.59,12.59,0,0,1-.81,7.43,4.07,4.07,0,0,0-.84,2.84c.24,1.62,2.53,2.79,2.86,4.13.2.67.79.77,0,2.06-.43.69-2.31,1.86-2.86,2.46-.74.75-.1,1.93.4,2.41,1.42,1.27,2.59,1.43,3.7,2.92,1.56,2,1.47,3.76,4.93,4.1,2.72.25,6.56.4,4.94-3.3l-.82-1.39c-1-2.41-2.66-4.56-2.89-7.2-.31-3.36,2.4-5.08,1.26-7.79-.92-2.1-5-1.86-5.35-4.57-.18-1.51,1.36-4.72,1.66-6.15.31-2-.21-3.24.41-4.93.42-1.21,2.21-2.57,2.42-4.08C146,212.55,143.86,210.84,144.79,207.87Zm-18.18,22.82a4.91,4.91,0,0,0,1.65-.71c.72-.77-.33-1.58-.33-1.58-2.6-.87-5.52.79-9.42.39-1.93-.17-4.66-1.26-7.37-.83a25.74,25.74,0,0,0-9.36,3.81s-1,1.72.39,1.26c.88-.25,2.15.18,2.68,0l1.18-.48c1.36-.88,2.73-.61,4.11-.48.69.07,2.74,1,3.42,1,1.1.12,6.26.68,11.77,1.47,0,0,2.93-.4,2.19-1.22.46.54-.09-.45-1.21-.84l-.4-.41C126,232,125,231.28,126.61,230.69Zm5-13c1.15-1.54,6-1.72,6.28-3.68-.06.29-.18-2.47-2.83-2.3a13,13,0,0,0-1.9.57c-3.95,1.79-4.21,4.86-6.45,7.87-.22.24-1.11.55-1.25.79-.68,1-.61,2.69-1.64,3.3-.71.42-2.64.94-3.15,1.47s1,1,1,1C129.68,226.32,128.26,222.12,131.64,217.72Zm38.18-26.28c3.23-.7,3.23,1.46,4.52,1.63,2.58.36,2-2,2-2a11.58,11.58,0,0,0-3.26-4.95c-1-.75-2.16-.66-2.9-1.65-1-1.4-1-5.26-2-6.16a10.61,10.61,0,0,0-2.09-.82c-3.32-.18-13.59,13.7-7.81,16.41,1.27.6,2.27.11,3.71.45l1.64.8C167,195.23,167.56,191.91,169.82,191.44Zm141-185.93H6.08v121.1H310.77ZM259,108.58s0-18.22,0-18.68h6.12V87.08H249.34v2.81h6v18.68ZM35.87,24.16H28.6v44.9h7.78v-23L54.33,66c1.48,2,4.15,3,7.89,3h6.42L67.11,68s-.6-.45-.6-.45a45.64,45.64,0,0,1-6.29-5.71L44.55,44.47c.53-.65,15.82-19.35,15.82-19.36l.91-.95H53.56L36.38,45.42V24.16ZM306,77.15H11.65v2.26H306Zm-21.1,31.43s0-9.21,0-9.34S293,87.1,293,87.1h-3.6l-5.86,9-5.76-9.06h-4.27s7.65,12,7.74,12.14,0,9.36,0,9.36Z"/></g></g></svg>